<svg width="24" height="22" viewBox="0 0 24 22" fill="none" xmlns="http://www.w3.org/2000/svg">
<path d="M23.3316 6.20084L12.3866 0.291256C12.1451 0.161256 11.8558 0.161256 11.6142 0.291256L0.671474 6.20084C0.277141 6.41426 0.129808 6.90717 0.343224 7.30259C0.489474 7.57342 0.770058 7.72834 1.05822 7.72834C1.18822 7.72834 1.32147 7.69584 1.44389 7.63084L2.32681 7.15417L4.09156 19.6266C4.32339 20.9428 5.50856 21.8604 6.97106 21.8604H17.0266C18.4912 21.8604 19.6753 20.9418 19.9115 19.5995L21.673 7.15201L22.5591 7.63084C22.9535 7.83992 23.4475 7.69584 23.6609 7.30151C23.8732 6.90826 23.7259 6.41534 23.3316 6.20084ZM18.3071 19.3449C18.1911 20.0014 17.5455 20.2354 17.0287 20.2354H6.97322C6.45322 20.2354 5.80864 20.0014 5.69706 19.3709L3.85322 6.33084L11.9999 1.93034L20.1487 6.32867L18.3071 19.3449Z" fill="white"/>
</svg>
